<?xml version="1.0" encoding="UTF-8" standalone="no" ?>
<!DOCTYPE svg PUBLIC "-//W3C//DTD SVG 1.1//EN" "http://www.w3.org/Graphics/SVG/1.1/DTD/svg11.dtd">
<svg xmlns="http://www.w3.org/2000/svg" xmlns:xlink="http://www.w3.org/1999/xlink" version="1.1" width="162.96875" height="97.43199999999999" xml:space="preserve">
<desc>Created with Fabric.js 1.6.0-rc.1</desc>
<defs></defs>
<g style="stroke: none; stroke-width: 1; stroke-dasharray: none; stroke-linecap: butt; stroke-linejoin: miter; stroke-miterlimit: 10; fill: none; fill-rule: nonzero; opacity: 1;" transform="translate(14.450000000000045 10) scale(0.38 0.38)" >
  <path d="M 52.7 46.8 c 0 0 35.7 35.7 36.1 36.2 c 0.4 0.5 5.9 -1.3 5.9 -1.3 l 0.2 -2.3 l 6.2 1.5 l 3.9 -0.6 l 0.5 -10.2 l -16 -17.8 C 89.5 52.3 63.7 44.6 52.7 46.8 z" style="stroke: none; stroke-width: 1; stroke-dasharray: none; stroke-linecap: butt; stroke-linejoin: miter; stroke-miterlimit: 10; fill: #138544; fill-rule: nonzero; opacity: 1;" transform=" matrix(1 0 0 1 0 -0.00000522573) " stroke-linecap="round" />
  <path d="M 86.3 32 l 20.5 30.6 c 0 0 6.8 -19.3 7.5 -19.5 C 115 42.9 97.4 30.7 86.3 32 z" style="stroke: none; stroke-width: 1; stroke-dasharray: none; stroke-linecap: butt; stroke-linejoin: miter; stroke-miterlimit: 10; fill: #138544; fill-rule: nonzero; opacity: 1;" transform=" matrix(1 0 0 1 0 -0.00000522573) " stroke-linecap="round" />
  <path d="M 109.8 9.2 c -0.4 0 19.4 33 19.4 33 l 6.8 1 l 7 -12.8 C 142.9 30.3 118.6 9.1 109.8 9.2 z" style="stroke: none; stroke-width: 1; stroke-dasharray: none; stroke-linecap: butt; stroke-linejoin: miter; stroke-miterlimit: 10; fill: #138544; fill-rule: nonzero; opacity: 1;" transform=" matrix(1 0 0 1 0 -0.00000522573) " stroke-linecap="round" />
  <path d="M 222.4 57.1 c 0 0 39.9 33.7 39.6 39.4 l 2.4 -0.6 c 0 0 2.8 -36 -3.9 -46.6 C 260.6 49.2 240.1 40 222.4 57.1 z" style="stroke: none; stroke-width: 1; stroke-dasharray: none; stroke-linecap: butt; stroke-linejoin: miter; stroke-miterlimit: 10; fill: #138544; fill-rule: nonzero; opacity: 1;" transform=" matrix(1 0 0 1 0 -0.00000522573) " stroke-linecap="round" />
  <path d="M 276.8 73.3 l 25.8 25.1 c 0 0 4.5 -0.6 4.4 -1.6 c -0.1 -1 -0.1 -1 -0.1 -1 l 11.6 0.4 l 5 6.8 c 0 0 4 0 4.1 0.8 c 0.1 0.8 0.2 0.4 0.2 0.4 s 7 -29.3 5.6 -30.9 c 0 0 -27 -1.8 -35.4 6.9 C 298 80.2 283 72.4 276.8 73.3 z" style="stroke: none; stroke-width: 1; stroke-dasharray: none; stroke-linecap: butt; stroke-linejoin: miter; stroke-miterlimit: 10; fill: #138544; fill-rule: nonzero; opacity: 1;" transform=" matrix(1 0 0 1 0 -0.00000522573) " stroke-linecap="round" />
  <path d="M 115.1 44 l 57.3 46.8 c 0 0 3.8 2.5 4.7 -5.2 c 0 0 14.8 3.3 15.6 3.9 l 7.8 9.3 c 0 0 -8.8 -16.4 -13.4 -21.9 c -4.6 -5.6 -26.3 -20 -31.4 -23.1 c -5.1 -3.1 -15.9 -13 -40.9 -9.7" style="stroke: none; stroke-width: 1; stroke-dasharray: none; stroke-linecap: butt; stroke-linejoin: miter; stroke-miterlimit: 10; fill: #138544; fill-rule: nonzero; opacity: 1;" transform=" matrix(1 0 0 1 0 -0.00000522573) " stroke-linecap="round" />
  <path d="M 136.5 43.5 l 3.6 0.7 c 0 0 6.9 -11.4 8.1 -12.5 c 1.2 -1.1 14.7 9.9 15.1 10.8 c 0.5 0.8 11.3 12 12.8 13.8 c 1.6 1.8 26.3 41.9 26.5 42.9 c 0.2 1 -9.2 -21.3 -13.1 -28.6 c -3.9 -7.3 -15.7 -21.3 -16.5 -22.3 c -0.7 -1 -24 -23.7 -26.5 -22.5 C 144.2 27.1 136.9 42.1 136.5 43.5 z" style="stroke: none; stroke-width: 1; stroke-dasharray: none; stroke-linecap: butt; stroke-linejoin: miter; stroke-miterlimit: 10; fill: #138544; fill-rule: nonzero; opacity: 1;" transform=" matrix(1 0 0 1 0 -0.00000522573) " stroke-linecap="round" />
  <path d="M 179.6 38.8 c 0 0 25.2 22.5 28 27.3 c 2.8 4.8 -16.8 -33.6 -19.7 -34.1 C 185 31.5 179.5 38 179.6 38.8 z" style="stroke: none; stroke-width: 1; stroke-dasharray: none; stroke-linecap: butt; stroke-linejoin: miter; stroke-miterlimit: 10; fill: #138544; fill-rule: nonzero; opacity: 1;" transform=" matrix(1 0 0 1 0 -0.00000522573) " stroke-linecap="round" />
  <path d="M 171.2 0 c 0 0 53.1 50.1 52 100.5 l -0.2 3.2 l 1.8 0.6 c 0 0 1.5 -20.2 0.8 -26.2 c -0.6 -6 -5.7 -22.8 -6.9 -25.4 c -1.3 -2.6 -10.3 -22.4 -15.7 -28.8 C 197.7 17.8 179.6 0.3 171.2 0 z" style="stroke: none; stroke-width: 1; stroke-dasharray: none; stroke-linecap: butt; stroke-linejoin: miter; stroke-miterlimit: 10; fill: #138544; fill-rule: nonzero; opacity: 1;" transform=" matrix(1 0 0 1 0 -0.00000522573) " stroke-linecap="round" />
  <path d="M 169.4 0.5 l 4.2 3.2 c 0 0 -10.3 20.7 -9.5 24.1 l -4.2 -1.5 C 159.9 26.3 164.4 6.3 169.4 0.5 z" style="stroke: none; stroke-width: 1; stroke-dasharray: none; stroke-linecap: butt; stroke-linejoin: miter; stroke-miterlimit: 10; fill: #138544; fill-rule: nonzero; opacity: 1;" transform=" matrix(1 0 0 1 0 -0.00000522573) " stroke-linecap="round" />
  <path d="M 176.1 9.7 l 3.4 3.4 c 0 0 -8.2 17 -8.5 18 l -2.9 -1.7 C 168.1 29.5 174.6 10.8 176.1 9.7 z" style="stroke: none; stroke-width: 1; stroke-dasharray: none; stroke-linecap: butt; stroke-linejoin: miter; stroke-miterlimit: 10; fill: #138544; fill-rule: nonzero; opacity: 1;" transform=" matrix(1 0 0 1 0 -0.00000522573) " stroke-linecap="round" />
  <path d="M 110.2 81.1 c 0 0 4.6 5.8 6.2 6.5 c 1.6 0.7 36.7 -2.7 37.7 -3.2 c 1 -0.5 -12.8 -5.9 -14.8 -6.8 c -1.9 -0.8 -11 -1.6 -12.6 -3.8 c -1.6 -2.2 -1.7 0.1 -1.7 0.1 S 111.2 81.3 110.2 81.1 z" style="stroke: none; stroke-width: 1; stroke-dasharray: none; stroke-linecap: butt; stroke-linejoin: miter; stroke-miterlimit: 10; fill: #138544; fill-rule: nonzero; opacity: 1;" transform=" matrix(1 0 0 1 0 -0.00000522573) " stroke-linecap="round" />
  <path d="M 116.5 48.6 c 0 0 6.9 4 7.9 5.3 c 1 1.3 1 6.7 1 6.7 s -12.5 14.3 -13.4 17.1 c -1 2.8 -4.8 3 -4.8 3 S 107.9 58.9 116.5 48.6 z" style="stroke: none; stroke-width: 1; stroke-dasharray: none; stroke-linecap: butt; stroke-linejoin: miter; stroke-miterlimit: 10; fill: #138544; fill-rule: nonzero; opacity: 1;" transform=" matrix(1 0 0 1 0 -0.00000522573) " stroke-linecap="round" />
  <path d="M 104.9 81.2 c 0.5 0.1 4.6 6.9 5.1 8.1 c 0.5 1.2 -23.7 -1.7 -24.6 -2.2 C 84.6 86.7 94.9 79.5 104.9 81.2 z" style="stroke: none; stroke-width: 1; stroke-dasharray: none; stroke-linecap: butt; stroke-linejoin: miter; stroke-miterlimit: 10; fill: #138544; fill-rule: nonzero; opacity: 1;" transform=" matrix(1 0 0 1 0 -0.00000522573) " stroke-linecap="round" />
  <path d="M 55.5 51.4 c 0 0 31 32 31.1 32.6 c 0.1 0.6 -4.6 1.6 -4.6 1.6 s 0 -5.2 -1.3 -6.1 C 79.3 78.7 63 71 62 71.3 C 61.1 71.5 55.5 51.4 55.5 51.4 z" style="stroke: none; stroke-width: 1; stroke-dasharray: none; stroke-linecap: butt; stroke-linejoin: miter; stroke-miterlimit: 10; fill: #138544; fill-rule: nonzero; opacity: 1;" transform=" matrix(1 0 0 1 0 -0.00000522573) " stroke-linecap="round" />
  <path d="M 61.2 72.7 c 0 0 16.1 5.7 16.8 7 c 0.7 1.3 1.2 3.4 1.2 3.4 s -33.9 2.1 -34.5 -2.5 c 0 0 9.2 -3 10.5 -2.7 C 56.6 78.3 61.2 72.7 61.2 72.7 z" style="stroke: none; stroke-width: 1; stroke-dasharray: none; stroke-linecap: butt; stroke-linejoin: miter; stroke-miterlimit: 10; fill: #138544; fill-rule: nonzero; opacity: 1;" transform=" matrix(1 0 0 1 0 -0.00000522573) " stroke-linecap="round" />
  <path d="M 225.8 102.6 l 0.1 1.6 c 0 0 35.4 -2.5 36.2 -3.8 c 0.8 -1.2 -4.8 -9.8 -4.8 -9.8 l -10 5.3 c 0 0 -13.3 -6.7 -14.6 -6 c -1.3 0.7 -7 12.2 -7 12.5" style="stroke: none; stroke-width: 1; stroke-dasharray: none; stroke-linecap: butt; stroke-linejoin: miter; stroke-miterlimit: 10; fill: #138544; fill-rule: nonzero; opacity: 1;" transform=" matrix(1 0 0 1 0 -0.00000522573) " stroke-linecap="round" />
  <path d="M 89 95.9 c 0 0 61.3 7.5 63.4 6.1 l 0.1 3.4 c 0 0 -61.4 -3.8 -63.7 -6.1 L 89 95.9 z" style="stroke: none; stroke-width: 1; stroke-dasharray: none; stroke-linecap: butt; stroke-linejoin: miter; stroke-miterlimit: 10; fill: #138544; fill-rule: nonzero; opacity: 1;" transform=" matrix(1 0 0 1 0 -0.00000522573) " stroke-linecap="round" />
  <path d="M 83 104 c 0 0 55.8 8.7 69.4 7.3 l 0.1 3 c 0 0 -69.2 -4.6 -69.8 -7.5 L 83 104 z" style="stroke: none; stroke-width: 1; stroke-dasharray: none; stroke-linecap: butt; stroke-linejoin: miter; stroke-miterlimit: 10; fill: #138544; fill-rule: nonzero; opacity: 1;" transform=" matrix(1 0 0 1 0 -0.00000522573) " stroke-linecap="round" />
  <path d="M 76.7 114.5 c -0.2 -0.4 -3.5 3.1 -3.5 3.1 s 47.6 10.3 79.2 9.9 c 0.1 0 0.2 0 0.4 0 l 0.1 -4.5 C 152.9 123.1 78.4 117.9 76.7 114.5 z" style="stroke: none; stroke-width: 1; stroke-dasharray: none; stroke-linecap: butt; stroke-linejoin: miter; stroke-miterlimit: 10; fill: #138544; fill-rule: nonzero; opacity: 1;" transform=" matrix(1 0 0 1 0 -0.00000522573) " stroke-linecap="round" />
  <path d="M 47.7 87.6 l 0.1 2.2 h -2.5 c 0 0 3.5 3.1 25.2 5 l -0.1 -3.3 C 70.3 91.4 48.3 90.5 47.7 87.6 z" style="stroke: none; stroke-width: 1; stroke-dasharray: none; stroke-linecap: butt; stroke-linejoin: miter; stroke-miterlimit: 10; fill: #138544; fill-rule: nonzero; opacity: 1;" transform=" matrix(1 0 0 1 0 -0.00000522573) " stroke-linecap="round" />
  <path d="M 293.5 162.2 c 0 0 -4.2 3.9 -3.8 5.1 c 0.5 1.2 6.2 1.1 6.2 1.1 l 0.7 2.4 l 4.4 2.1 l 4.5 -5 c 0 0 -1.7 -6.1 -4.1 -6.5 C 299 160.9 293.8 161.4 293.5 162.2 z" style="stroke: none; stroke-width: 1; stroke-dasharray: none; stroke-linecap: butt; stroke-linejoin: miter; stroke-miterlimit: 10; fill: #138544; fill-rule: nonzero; opacity: 1;" transform=" matrix(1 0 0 1 0 -0.00000522573) " stroke-linecap="round" />
  <path d="M 203 166.1 c 0 0 91.6 7.9 92.1 7.7 c 0.5 -0.1 0.2 2.7 0.2 2.7 S 203.9 171.1 203 166.1 z" style="stroke: none; stroke-width: 1; stroke-dasharray: none; stroke-linecap: butt; stroke-linejoin: miter; stroke-miterlimit: 10; fill: #138544; fill-rule: nonzero; opacity: 1;" transform=" matrix(1 0 0 1 0 -0.00000522573) " stroke-linecap="round" />
  <path d="M 296.3 173 l 0.7 -1.2 l 3.3 1.7 c 0 0 -2.5 3 -3.3 2.8 C 296.3 176.1 296.3 173 296.3 173 z" style="stroke: none; stroke-width: 1; stroke-dasharray: none; stroke-linecap: butt; stroke-linejoin: miter; stroke-miterlimit: 10; fill: #138544; fill-rule: nonzero; opacity: 1;" transform=" matrix(1 0 0 1 0 -0.00000522573) " stroke-linecap="round" />
  <path d="M 288.6 152.7 l -3.8 -0.2 l 2.1 -6.2 l -0.8 0.1 l -2.4 5.8 l -6.5 -0.4 l -1 -1.3 l -4.1 -0.4 V 145 l -0.6 -0.1 l -0.4 4.7 l -10.8 -0.4 l -8.7 -0.5 l -0.1 -3.4 l -14.8 -1.6 l 0.1 -2.5 l -0.7 -0.5 l -0.6 -7.3 l -0.8 -0.2 v 8.2 l -8.6 -0.4 L 226 131 l -1.9 -0.1 l 0.1 5.9 l -2.7 -0.1 l 0.1 -5 l -1.8 -0.1 l -1 15.1 c 0 0 -7.1 -0.5 -8.6 2.3 c 0 0 71.2 8.5 72.3 8.2 c 1.1 -0.2 7.3 -4.1 7.3 -4.1 L 288.6 152.7 z M 233.2 149 h -1.3 v -1.3 h 1.3 V 149 z M 237.1 149.4 h -1.2 v -1.2 h 1.2 V 149.4 z M 240.8 149.9 h -1.1 v -1.5 h 1.1 V 149.9 z M 244.5 150.3 h -1.2 v -1.5 h 1.2 V 150.3 z" style="stroke: none; stroke-width: 1; stroke-dasharray: none; stroke-linecap: butt; stroke-linejoin: miter; stroke-miterlimit: 10; fill: #138544; fill-rule: nonzero; opacity: 1;" transform=" matrix(1 0 0 1 0 -0.00000522573) " stroke-linecap="round" />
  <path d="M 201.1 163 l 0.5 0.6 c 0 0 -1.4 -0.2 -1.3 0.9 c 0.1 1 0.9 1 1.2 1 c 0.3 0.1 0.4 0.6 0.9 1.1 c 0.5 0.5 0 0.2 3 1.8 c 3 1.5 4 2.5 4.4 2.2 c 0.5 -0.3 0 0.6 0 0.6 s -5.5 -2.7 -6.2 -2.9 c -0.7 -0.2 -2.6 -0.6 -2.8 -0.8 c -0.2 -0.2 -0.1 -1.3 -0.1 -1.3 s -3.1 0.6 -3.7 -0.4 c -0.6 -1 0.7 -1.8 1.4 -1.9 C 199 163.8 200.9 162.8 201.1 163 z" style="stroke: none; stroke-width: 1; stroke-dasharray: none; stroke-linecap: butt; stroke-linejoin: miter; stroke-miterlimit: 10; fill: #138544; fill-rule: nonzero; opacity: 1;" transform=" matrix(1 0 0 1 0 -0.00000522573) " stroke-linecap="round" />
  <path d="M 295.6 169.3 l -7.3 -0.6 l -0.7 -1.5 l 4.8 -4.8 l -1.7 -1.7 l -0.2 -6.4 l -7 4.2 c 0 0 -1.5 -0.2 -4 -0.4 v 3.4 h -1.3 v -3.6 c -0.8 -0.1 -1.8 -0.2 -2.8 -0.3 v 3 h -1.2 v -3.1 c -0.7 -0.1 -1.5 -0.2 -2.3 -0.2 v 3.5 h -1.1 v -3.6 c -0.7 -0.1 -1.5 -0.2 -2.3 -0.2 v 3.4 H 267 v -3.5 c -1.8 -0.2 -3.8 -0.4 -5.8 -0.6 v 2.4 h -1.5 V 156 c -0.6 -0.1 -1.1 -0.1 -1.7 -0.2 v 2.8 h -2.2 v -3 c -0.8 -0.1 -1.6 -0.2 -2.4 -0.3 v 2.8 h -1.1 v -2.9 c -0.6 -0.1 -1.3 -0.1 -1.9 -0.2 v 3 h -1.8 v -3.2 c -18.8 -2 -38.2 -4.1 -38.3 -4.4 l -0.1 2.4 c 0 0 -3.3 1.2 -3 2.2 l 2.5 1.7 l -0.5 1.8 c 0 0 -5.8 -0.5 -6.5 1.2 c -0.3 0.8 -0.4 0.9 -0.5 0.7 c -0.1 0.9 -0.1 2.7 0.8 3.5 c 0 0 90.5 9.6 92.3 7.8 C 297.2 170 295.6 169.3 295.6 169.3 z M 289 156 c 0.4 0.2 0.7 1.1 0.7 1.1 l -0.1 5.9 l -1.2 1.2 l -0.1 -7.6 C 288.4 156.4 289 156 289 156 z M 214.9 162 l -1.2 -0.4 l -0.1 -3.5 l 0.4 -0.1 h 1.1 L 214.9 162 z M 218.2 162.4 h -1.3 V 158 h 1.3 V 162.4 z M 218.5 155.9 l -1.5 -0.1 l 0.1 -3.3 h 1.3 L 218.5 155.9 L 218.5 155.9 z M 221.6 162.6 h -1.2 v -3.5 h 1.2 V 162.6 z M 221.9 156.2 l -1.3 0.1 l 0.1 -3.8 l 1.3 0.4 L 221.9 156.2 z M 225.2 164.9 h -1.3 v -4.8 h 1.3 V 164.9 z M 224.2 157.4 L 224 153 l 1.8 0.2 l 0.1 4.2 L 224.2 157.4 z M 228.6 163.9 h -1.2 v -1.8 h 1.2 V 163.9 z M 229.1 155.8 h -1.5 v -2.3 h 1.5 V 155.8 z M 232.1 164.2 h -1.7 V 161 h 1.7 V 164.2 z M 232.1 156.4 h -1.2 v -2.5 h 1.2 V 156.4 z M 235.6 164.5 h -1.2 V 161 h 1.2 V 164.5 z M 236.1 156.3 h -1.7 v -2.2 h 1.7 V 156.3 z M 239.5 164.3 H 238 v -2.9 h 1.5 V 164.3 z M 239.9 157.3 h -1.7 v -2.5 h 1.7 V 157.3 z M 240.9 159.3 h -0.7 v -1.1 h 0.7 V 159.3 z M 243 165 h -1.6 v -3 h 1.6 V 165 z M 243.1 157.5 h -1.3 V 155 h 1.3 V 157.5 z M 246.6 165.6 h -1.6 v -3.5 h 1.6 V 165.6 z M 246.8 157.8 h -1.6 v -2.5 h 1.6 V 157.8 z M 250.5 165.4 h -1.8 v -2.9 h 1.8 V 165.4 z M 253.5 166 h -1.5 v -3 h 1.5 V 166 z M 257.8 166.1 h -1.9 v -2.7 h 1.9 V 166.1 z M 261.1 166.9 h -1.5 v -3.4 h 1.5 V 166.9 z M 263 156.7 h 1.6 v 4 H 263 V 156.7 z M 264.7 168.8 H 263 v -5.7 h 1.7 V 168.8 z M 268.1 167.5 h -1.2 v -3.8 h 1.2 V 167.5 z M 271.7 167.6 h -1.3 v -3.8 h 1.3 V 167.6 z M 275.5 167.8 H 274 v -3.5 h 1.5 V 167.8 z M 279.2 167.8 h -1.5 v -3.3 h 1.5 V 167.8 z M 284.8 167 c 0 0 -0.1 0.8 -0.7 0.9 c -0.6 0.1 -0.5 -0.2 -0.7 -0.7 c -0.2 -0.5 0.2 -2.8 0.2 -2.8 l 1.3 1 L 284.8 167 z M 284.9 163.9 l -1.1 -1 c 0 0 0.1 -3 0.1 -3.3 c 0 -0.3 0.3 -1.3 0.6 -1.3 c 0.3 -0.1 0.7 1.3 0.7 1.3 L 284.9 163.9 z M 287.2 166 l -1.1 -1 c 0 0 0 -6.2 0 -6.7 s 0.3 -1.5 0.7 -1.5 c 0.4 0 0.5 1.3 0.5 1.3 L 287.2 166 z M 202.2 160.6 c 0 -0.4 0.1 -0.6 0.1 -0.6 S 202.2 160.4 202.2 160.6 z" style="stroke: none; stroke-width: 1; stroke-dasharray: none; stroke-linecap: butt; stroke-linejoin: miter; stroke-miterlimit: 10; fill: #138544; fill-rule: nonzero; opacity: 1;" transform=" matrix(1 0 0 1 0 -0.00000522573) " stroke-linecap="round" />
  <path d="M 306.9 168.1 c 0 0 2.7 3.2 5 4.3 c 2.3 1 20 3.6 24 2.1 c 4 -1.5 9.4 1.5 11.5 2.2 c 2.1 0.6 3.8 0.4 3.8 0.4 l 0.2 0.8 c 0 0 -14.8 -2.5 -15.9 -1.8 c -1.1 0.7 -21.7 -0.2 -24 -2 c -2.3 -1.9 -6 -4.1 -6.2 -4 C 305 170.3 306.9 168.1 306.9 168.1 z" style="stroke: none; stroke-width: 1; stroke-dasharray: none; stroke-linecap: butt; stroke-linejoin: miter; stroke-miterlimit: 10; fill: #138544; fill-rule: nonzero; opacity: 1;" transform=" matrix(1 0 0 1 0 -0.00000522573) " stroke-linecap="round" />
  <path d="M 304.4 171.4 c 0 0 5.7 4.1 7.5 4.4 c 1.9 0.2 14.3 1.7 17.9 1.7 c 0 0 5.1 0.5 6 -0.2 c 0.9 -0.7 5.4 -0.1 6.5 0.3 c 1.1 0.4 5.4 0.7 5.4 0.7 l 0.1 0.6 c 0 0 -8.7 -0.9 -10 -0.7 c -1.4 0.2 -6.3 0.9 -7.8 0.7 c -1 -0.1 -17.8 -0.6 -19.4 -2.3 c -1.5 -1.7 -7.8 -2.8 -7.8 -2.8 L 304.4 171.4 z" style="stroke: none; stroke-width: 1; stroke-dasharray: none; stroke-linecap: butt; stroke-linejoin: miter; stroke-miterlimit: 10; fill: #138544; fill-rule: nonzero; opacity: 1;" transform=" matrix(1 0 0 1 0 -0.00000522573) " stroke-linecap="round" />
  <path d="M 302.5 174.7 c 0 0 4.6 1.2 6.3 2.1 c 1.7 0.9 3 1.3 3 1.3 v 0.4 c 0 0 -8.9 -1.9 -9.5 -1.9 c 0 0 0.2 -1.6 0.2 -1.6" style="stroke: none; stroke-width: 1; stroke-dasharray: none; stroke-linecap: butt; stroke-linejoin: miter; stroke-miterlimit: 10; fill: #138544; fill-rule: nonzero; opacity: 1;" transform=" matrix(1 0 0 1 0 -0.00000522573) " stroke-linecap="round" />
  <path d="M 1.2 114.5 c 0 0 37.6 8.5 40.5 7.5 c 2.9 -1 30.8 2.9 33.2 2.7 s 47 2.9 47.7 3.1 c 0.7 0.2 0 7 0 7 S 0.5 129.5 0 121.5 V 114 L 1.2 114.5 z" style="stroke: none; stroke-width: 1; stroke-dasharray: none; stroke-linecap: butt; stroke-linejoin: miter; stroke-miterlimit: 10; fill: #138544; fill-rule: nonzero; opacity: 1;" transform=" matrix(1 0 0 1 0 -0.00000522573) " stroke-linecap="round" />
  <path d="M 130.3 129.8 v 7.8 c 0 0 -1.5 4.4 75.6 0 l 0.2 -9 C 206.2 128.6 156.8 135.8 130.3 129.8 z" style="stroke: none; stroke-width: 1; stroke-dasharray: none; stroke-linecap: butt; stroke-linejoin: miter; stroke-miterlimit: 10; fill: #138544; fill-rule: nonzero; opacity: 1;" transform=" matrix(1 0 0 1 0 -0.00000522573) " stroke-linecap="round" />
  <polygon points="241.8,127.4 242,134.9 352,131 352.5,123.2 " style="stroke: none; stroke-width: 1; stroke-dasharray: none; stroke-linecap: butt; stroke-linejoin: miter; stroke-miterlimit: 10; fill: #138544; fill-rule: nonzero; opacity: 1;" transform="  matrix(1 0 0 1 0 -0.00000522573) "/>
  <polygon points="331.4,111.4 331.2,117.4 352.3,118.4 352.5,110.6 " style="stroke: none; stroke-width: 1; stroke-dasharray: none; stroke-linecap: butt; stroke-linejoin: miter; stroke-miterlimit: 10; fill: #138544; fill-rule: nonzero; opacity: 1;" transform="  matrix(1 0 0 1 0 -0.00000522573) "/>
  <polygon points="233.8,114.8 233.6,124 237.4,124.7 237.4,114.8 " style="stroke: none; stroke-width: 1; stroke-dasharray: none; stroke-linecap: butt; stroke-linejoin: miter; stroke-miterlimit: 10; fill: #138544; fill-rule: nonzero; opacity: 1;" transform="  matrix(1 0 0 1 0 -0.00000522573) "/>
  <polygon points="274,110.2 273.3,121.1 280.1,121.3 283,120.8 282.7,115.7 279.1,109.2 " style="stroke: none; stroke-width: 1; stroke-dasharray: none; stroke-linecap: butt; stroke-linejoin: miter; stroke-miterlimit: 10; fill: #138544; fill-rule: nonzero; opacity: 1;" transform="  matrix(1 0 0 1 0 -0.00000522573) "/>
  <polygon points="287.1,113.5 290.7,113.5 291,121.5 287.3,121.8 " style="stroke: none; stroke-width: 1; stroke-dasharray: none; stroke-linecap: butt; stroke-linejoin: miter; stroke-miterlimit: 10; fill: #138544; fill-rule: nonzero; opacity: 1;" transform="  matrix(1 0 0 1 0 -0.00000522573) "/>
  <polygon points="195.3,110.9 222.2,108.7 263.8,107.5 264.1,110.2 221.7,111.9 208.4,112.8 195.3,113.3 " style="stroke: none; stroke-width: 1; stroke-dasharray: none; stroke-linecap: butt; stroke-linejoin: miter; stroke-miterlimit: 10; fill: #138544; fill-rule: nonzero; opacity: 1;" transform="  matrix(1 0 0 1 0 -0.00000522573) "/>
  <polygon points="290.7,107 317.9,107 318.1,110.2 291,110.4 " style="stroke: none; stroke-width: 1; stroke-dasharray: none; stroke-linecap: butt; stroke-linejoin: miter; stroke-miterlimit: 10; fill: #138544; fill-rule: nonzero; opacity: 1;" transform="  matrix(1 0 0 1 0 -0.00000522573) "/>
  <path d="M 44.3 95.4 c 0 1 -1 6.8 -1 6.8 l -4.1 3.1 l -3.9 -1.7 l -2.4 1.9 l -1.7 -1.2 l -2.2 1.9 l -2.2 -0.7 l -3.6 2.2 l -1.9 0.7 l -0.7 1.7 c 0 0 -9.7 -1 -14.5 0.2 c 0 0 57.4 6.5 63.5 4.6 c 6.1 -1.9 -6.3 -3.1 -6.3 -3.1 l -4.1 -4.8 l -4.4 1.7 l -2.2 -3.4 l -4.6 1.5 l -1 -2.9 l -1.5 -1.5 l 0.2 -7 L 44.3 95.4 L 44.3 95.4 z" style="stroke: none; stroke-width: 1; stroke-dasharray: none; stroke-linecap: butt; stroke-linejoin: miter; stroke-miterlimit: 10; fill: #138544; fill-rule: nonzero; opacity: 1;" transform=" matrix(1 0 0 1 0 -0.00000522573) " stroke-linecap="round" />
</g>
  <g transform="translate(81.98 61.72)">
   <text font-family="Chunky" font-size="40" font-style="italic" font-weight="bold" style="stroke: none; stroke-width: 1; stroke-dasharray: none; stroke-linecap: butt; stroke-linejoin: miter; stroke-miterlimit: 10; fill: #1a801d; fill-rule: nonzero; opacity: 1;" ><tspan x="-71.48" y="8.98" style="stroke: none; stroke-width: 0; stroke-dasharray: none; stroke-linecap: butt; stroke-linejoin: miter; stroke-miterlimit: 4; fill: #1a801d; fill-rule: ; opacity: 1;">C</tspan><tspan x="-44.57" y="8.98" style="stroke: none; stroke-width: 0; stroke-dasharray: none; stroke-linecap: butt; stroke-linejoin: miter; stroke-miterlimit: 4; fill: #1a801d; fill-rule: ; opacity: 1;">i</tspan><tspan x="-30.2" y="8.98" style="stroke: none; stroke-width: 0; stroke-dasharray: none; stroke-linecap: butt; stroke-linejoin: miter; stroke-miterlimit: 4; fill: #1a801d; fill-rule: ; opacity: 1;">t</tspan><tspan x="-9.88" y="8.98" style="stroke: none; stroke-width: 0; stroke-dasharray: none; stroke-linecap: butt; stroke-linejoin: miter; stroke-miterlimit: 4; fill: #1a801d; fill-rule: ; opacity: 1;">o</tspan><tspan x="18.24" y="8.98" style="stroke: none; stroke-width: 0; stroke-dasharray: none; stroke-linecap: butt; stroke-linejoin: miter; stroke-miterlimit: 4; fill: #1a801d; fill-rule: ; opacity: 1;">u</tspan><tspan x="45.18" y="8.98" style="stroke: none; stroke-width: 0; stroke-dasharray: none; stroke-linecap: butt; stroke-linejoin: miter; stroke-miterlimit: 4; fill: #1a801d; fill-rule: ; opacity: 1;">r</tspan></text>
 </g>
</svg>